<svg width="18" height="13" viewBox="0 0 18 13" fill="none" xmlns="http://www.w3.org/2000/svg">
<path d="M17.031 2.03109C17.1008 1.96136 17.1561 1.87858 17.1938 1.78747C17.2316 1.69636 17.251 1.59871 17.251 1.50009C17.251 1.40148 17.2316 1.30383 17.1938 1.21272C17.1561 1.12161 17.1008 1.03882 17.031 0.969093C16.9613 0.899361 16.8785 0.844047 16.7874 0.806308C16.6963 0.768569 16.5986 0.749146 16.5 0.749146C16.4014 0.749146 16.3038 0.768569 16.2127 0.806308C16.1215 0.844047 16.0388 0.899361 15.969 0.969093L6.00003 10.9396L2.03103 6.96909C1.9613 6.89936 1.87852 6.84405 1.78741 6.80631C1.6963 6.76857 1.59865 6.74915 1.50003 6.74915C1.40142 6.74915 1.30377 6.76857 1.21266 6.80631C1.12155 6.84405 1.03876 6.89936 0.969032 6.96909C0.8993 7.03882 0.843986 7.12161 0.806247 7.21272C0.768508 7.30383 0.749084 7.40148 0.749084 7.50009C0.749084 7.59871 0.768508 7.69636 0.806247 7.78747C0.843986 7.87858 0.8993 7.96136 0.969032 8.03109L5.46903 12.5311C5.5387 12.6009 5.62146 12.6564 5.71258 12.6942C5.8037 12.732 5.90138 12.7514 6.00003 12.7514C6.09868 12.7514 6.19636 12.732 6.28748 12.6942C6.3786 12.6564 6.46136 12.6009 6.53103 12.5311L17.031 2.03109Z" fill="white"/>
</svg>
